<svg width="56" height="56" viewBox="0 0 56 56" fill="none" xmlns="http://www.w3.org/2000/svg">
<path d="M27.9981 5.59961C37.8989 5.59961 45.9181 13.6188 45.9181 23.5196V50.3996H10.0781V23.5196C10.0781 13.6188 18.0973 5.59961 27.9981 5.59961Z" stroke="#F5F5F5" stroke-miterlimit="10"/>
<path d="M23.5186 36.96H16.7986C15.5615 36.96 14.5586 37.9628 14.5586 39.2V43.68C14.5586 44.9171 15.5615 45.92 16.7986 45.92H23.5186C24.7557 45.92 25.7586 44.9171 25.7586 43.68V39.2C25.7586 37.9628 24.7557 36.96 23.5186 36.96Z" stroke="#F5F5F5" stroke-miterlimit="10"/>
<path d="M39.1983 36.96H32.4783C31.2412 36.96 30.2383 37.9628 30.2383 39.2V43.68C30.2383 44.9171 31.2412 45.92 32.4783 45.92H39.1983C40.4354 45.92 41.4383 44.9171 41.4383 43.68V39.2C41.4383 37.9628 40.4354 36.96 39.1983 36.96Z" stroke="#F5F5F5" stroke-miterlimit="10"/>
<path d="M23.5186 23.5195H16.7986C15.5615 23.5195 14.5586 24.5224 14.5586 25.7595V30.2395C14.5586 31.4766 15.5615 32.4795 16.7986 32.4795H23.5186C24.7557 32.4795 25.7586 31.4766 25.7586 30.2395V25.7595C25.7586 24.5224 24.7557 23.5195 23.5186 23.5195Z" stroke="#F5F5F5" stroke-miterlimit="10"/>
<path d="M41.4386 19.0401H14.5586L15.029 18.0993C17.493 13.1937 22.5106 10.0801 27.9986 10.0801C33.4866 10.0801 38.5042 13.1937 40.9682 18.0993L41.4386 19.0401Z" stroke="#F5F5F5" stroke-miterlimit="10"/>
<path d="M39.2022 23.5195H32.4822C31.2451 23.5195 30.2422 24.5224 30.2422 25.7595V30.2395C30.2422 31.4766 31.2451 32.4795 32.4822 32.4795H39.2022C40.4393 32.4795 41.4422 31.4766 41.4422 30.2395V25.7595C41.4422 24.5224 40.4393 23.5195 39.2022 23.5195Z" stroke="#F5F5F5" stroke-miterlimit="10"/>
<path d="M22.9591 16.1058L19.0391 19.0402H36.9591L33.0391 16.1058C30.0375 13.8658 25.9383 13.8658 22.9367 16.1058H22.9591Z" stroke="#F5F5F5" stroke-miterlimit="10"/>
</svg>
