<svg width="56" height="56" viewBox="0 0 56 56" fill="none" xmlns="http://www.w3.org/2000/svg">
<path d="M39.6654 9.33301H9.33203" stroke="#F5F5F5" stroke-miterlimit="10" stroke-linecap="round"/>
<path d="M37.332 7L39.6654 9.33333L37.332 11.6667" stroke="#F5F5F5" stroke-miterlimit="10" stroke-linecap="round"/>
<path d="M11.6654 7L9.33203 9.33333L11.6654 11.6667" stroke="#F5F5F5" stroke-miterlimit="10" stroke-linecap="round"/>
<path d="M46.668 46.6663V16.333" stroke="#F5F5F5" stroke-miterlimit="10" stroke-linecap="round"/>
<path d="M48.9987 44.333L46.6654 46.6663L44.332 44.333" stroke="#F5F5F5" stroke-miterlimit="10" stroke-linecap="round"/>
<path d="M48.9987 18.6663L46.6654 16.333L44.332 18.6663" stroke="#F5F5F5" stroke-miterlimit="10" stroke-linecap="round"/>
<path d="M34.9987 16.333H13.9987C11.4214 16.333 9.33203 18.4223 9.33203 20.9997V41.9997C9.33203 44.577 11.4214 46.6663 13.9987 46.6663H34.9987C37.576 46.6663 39.6654 44.577 39.6654 41.9997V20.9997C39.6654 18.4223 37.576 16.333 34.9987 16.333Z" stroke="#F5F5F5" stroke-miterlimit="10"/>
</svg>
