<svg width="560" height="24" viewBox="0 0 560 24" fill="none" xmlns="http://www.w3.org/2000/svg">
<g clip-path="url(#clip0_2744_6676)">
<path d="M0 12L541.214 12" stroke="#AB915D"/>
<path d="M547.755 24.0001C547.577 23.9965 547.407 23.9175 547.28 23.7791C547.155 23.6382 547.084 23.4475 547.084 23.2487C547.084 23.0499 547.155 22.8591 547.28 22.7183L556.203 12.7441H551.998L546.384 19.0203C546.258 19.1607 546.087 19.2395 545.909 19.2395C545.731 19.2395 545.561 19.1607 545.435 19.0203L539.623 12.5231C539.558 12.4551 539.508 12.3727 539.473 12.2814C539.439 12.19 539.423 12.0917 539.425 11.9927C539.424 11.8961 539.441 11.8003 539.475 11.7115C539.509 11.6227 539.559 11.5428 539.623 11.4771L545.435 4.96508C545.564 4.83151 545.733 4.75731 545.909 4.75731C546.085 4.75731 546.255 4.83151 546.384 4.96508L551.998 11.2561H556.203L547.28 1.28184C547.155 1.14101 547.084 0.950285 547.084 0.751457C547.084 0.552629 547.155 0.361906 547.28 0.22107C547.341 0.149889 547.415 0.0935459 547.497 0.0555319C547.578 0.017518 547.666 -0.00135719 547.755 7.58976e-05C547.933 0.00056362 548.103 0.0800468 548.229 0.22107L558.285 11.4771C558.347 11.5455 558.396 11.627 558.429 11.7168C558.463 11.8065 558.48 11.9028 558.48 12.0001C558.48 12.0973 558.463 12.1936 558.429 12.2834C558.396 12.3731 558.347 12.4546 558.285 12.5231L548.229 23.7791C548.1 23.9151 547.932 23.9937 547.755 24.0001ZM545.909 17.4439L550.773 11.9927L545.909 6.55624L541.033 11.9927L545.909 17.4439Z" fill="#AB915D"/>
</g>
<defs>
<clipPath id="clip0_2744_6676">
<rect width="560" height="24" fill="white"/>
</clipPath>
</defs>
</svg>
