<svg width="320" height="24" viewBox="0 0 320 24" fill="none" xmlns="http://www.w3.org/2000/svg">
<g clip-path="url(#clip0_1925_21687)">
<path d="M-306 12L299 12.0001" stroke="#B19052"/>
<path d="M306.311 -7.62939e-05C306.113 0.00349998 305.923 0.0825214 305.781 0.220921C305.641 0.361757 305.562 0.552479 305.562 0.751307C305.562 0.950136 305.641 1.14086 305.781 1.28169L315.755 11.2559H311.055L304.779 4.97967C304.638 4.83932 304.448 4.76051 304.249 4.76051C304.05 4.76051 303.859 4.83932 303.718 4.97967L297.221 11.4769C297.149 11.5449 297.092 11.6273 297.054 11.7186C297.016 11.81 296.998 11.9083 297 12.0073C296.999 12.1039 297.018 12.1997 297.056 12.2885C297.094 12.3773 297.15 12.4572 297.221 12.5229L303.718 19.0349C303.863 19.1685 304.052 19.2427 304.249 19.2427C304.445 19.2427 304.635 19.1685 304.779 19.0349L311.055 12.7439H315.755L305.781 22.7182C305.641 22.859 305.562 23.0497 305.562 23.2485C305.562 23.4474 305.641 23.6381 305.781 23.7789C305.85 23.8501 305.932 23.9065 306.023 23.9445C306.115 23.9825 306.213 24.0014 306.311 23.9999C306.511 23.9994 306.701 23.92 306.842 23.7789L318.083 12.5229C318.152 12.4545 318.207 12.373 318.244 12.2832C318.282 12.1935 318.301 12.0972 318.301 11.9999C318.301 11.9027 318.282 11.8064 318.244 11.7166C318.207 11.6269 318.152 11.5454 318.083 11.4769L306.842 0.220921C306.698 0.0849438 306.509 0.00633049 306.311 -7.62939e-05ZM304.249 6.5561L309.685 12.0073L304.249 17.4438L298.798 12.0073L304.249 6.5561Z" fill="#B19052"/>
</g>
<defs>
<clipPath id="clip0_1925_21687">
<rect width="320" height="24" fill="white" transform="matrix(1 0 0 -1 0 24)"/>
</clipPath>
</defs>
</svg>
